<svg
      xmlns="http://www.w3.org/2000/svg"
      width="1997"
      height="728.238"
      x="0"
      y="0"
      version="1.1"
      viewBox="1 630 1997 728.238"
      xmlSpace="preserve"
    >
      <switch>
        <g>
          <path d="M830.805 913.588l-8.501 5.222 4.692 50.297c-16.745 18.744-35.845 39.556-52.76 58.148l.662-93.712-8.589 1.971-30.476 123.318-69.634 40.684 52.472-165.183-8.079-1.649-90.259 179.566-73.196-10.757 110.747-182.602-10.362-5.948-146.96 173.869c-22.97-12.667-44.468-24.215-67.859-37.114l185.495-174.997-9.156-14.116-221.883 156.436-77.28-57.082L592.1 819.828l-4.727-17.602-319.026 120.89-72.116-68.413 387.614-96.748 3.34-19.125-431.134 75.852-65.132-71.629 507.897-43.576 11.365-16.342-548.898 26.62L1 630h761.297c0 4.45-1.357 9.642-.197 13.455C579.5 735.5 667 951 906.503 804.805l48.122 49.445-82.063 208.002-66.343-49.21c33.114-26.709 71.114-82.042 79.685-114.409 2.194-8.286.276-12.107-6.568-12.73-6.692-.609-13.336 5.846-9.787 12.987 2.001 4.016 6.189 6.93 6.189 6.93-7.732 9.551-26.502 34.554-34.545 45.44z"></path>
          <path d="M1105.749 1216.276c-5.182 5.21-13.443 14.096-18.986 20.052-11.495-25.948-22.211-52.254-33.762-78.329-1.864 1.504-4.885 5.101-6 6l30.308 80.01c-6.653 6.388-17.407 17.785-24.445 25.208-10.01-28.807-18.991-58.806-28.864-87.218l-6 5 24.805 93c-13.393 14.652-28.898 29.229-42.805 44.178L958.5 1280l27.5-93-6-5c-9.986 28.848-20.409 58.096-30.672 87.745l-21.826-24.065L958 1164l-6-6c-11.489 25.928-21.076 51.814-32.831 78.343l-19.645-21.39c9.101-23.009 22.032-52.083 31.476-74.953l-50.801-58L1000 762.207 1123.904 1082 1073 1140z"></path>
          <path d="M1099.209 1277.019L1085 1262.5 1110 1259.333 1135.827 1231.503 1128.333 1218.667 1131.732 1214.805 1085.056 1142.876 1121.228 1103.756 1169.325 1195.875 1176 1192 1183.871 1204.539 1208.667 1196.667 1215.5 1181.5 1226.314 1191.983 1249.404 1194.308 1232.312 1210.026 1229.646 1275.346 1210.39 1215.839 1180.469 1226.391 1194.598 1250.426 1206.5 1248 1202.333 1260.667 1228.988 1307.674 1233 1354.184 1220.943 1339.715 1172.132 1358.238 1201.465 1318.756 1178.792 1275.544 1164 1277.542 1172 1263.667 1159.23 1237.222 1132.419 1269.518 1163.535 1298 1114.248 1283.893 1092.333 1293z"></path>
          <path d="M789.492 1329.581l26 26.419c-12.165-5.26-41.766-11.248-52.847-16.362v-31.307l53.019-75.506-22.164-3.325-30.855 54.044 10.753-89.286 52.649 15.91 57.378-105.505 36.316 39.628-63.554 80.857L900.25 1266l-85.758 52.331L861 1268l-23-24.25z"></path>
          <path d="M1009.553 758.954c18.057-13.335 35.766-26.463 53.581-39.444 1.1-.801 3.175-.925 4.574-.545 7.566 2.058 15.123 4.196 22.532 6.744 1.596.549 3.349 2.736 3.71 4.447 2.885 13.688 5.538 27.427 8.017 41.195.347 1.927.083 4.783-1.119 6.046-19.926 20.943-40.048 41.7-60.803 63.199l-30.492-81.642z"></path>
          <path d="M900.385 779.173c-2.128-2.18-2.773-4.141-2.128-7.253 2.771-13.371 5.29-26.798 7.643-40.25.578-3.305 1.797-5.021 5.18-5.889 6.933-1.778 13.681-4.285 20.623-6.019 1.954-.488 4.797.001 6.421 1.17a3087.013 3087.013 0 0149.208 36.181c1.345 1.009 2.701 3.855 2.218 5.179 0 0-19.194 51.801-28.878 77.689z"></path>
          <path d="M1110.703 767.741c-2.909-14.728-5.794-28.743-8.375-42.813-.667-3.639-2.149-5.474-5.811-6.576-23.345-7.024-46.585-14.397-69.93-21.425-3.221-.97-8.337-3.227-4.779-4.628 4.358-1.716 64.432-.915 64.432-.915 4.234.101 7.415-.864 10.357-4.117 1.367-1.511 4.379-2.427 6.508-2.216 23.293 2.302 46.551 4.949 69.838 7.313 3.59.364 5.322 1.64 6.191 5.256 2.712 11.29 2.849 11.242-5.994 18.569z"></path>
          <path d="M820.834 710.975c-5.455-5.085-1.397-11.288 1.189-16.419 1.529-3.034 3.008-2.954 5.402-2.954 49.478.009 98.955-.016 148.433.099 1.35.003 3.847.772 4.046 2.271.238 1.8-2.13 2.917-3.51 3.335-23.992 7.275-47.985 14.557-72.11 21.37-4.44 1.254-5.886 3.418-6.602 7.482l-8.53 41.919zm44.129 13.24c4.548.082 8.507-3.645 8.737-8.224.238-4.737-3.769-8.812-8.626-8.773-4.666.037-8.459 3.818-8.457 8.428.004 4.58 3.809 8.487 8.346 8.569z"></path>
          <path d="M1173.579 723.488c1.612-1.266 4.518-2.362 6.238-1.782 15.177 5.113 30.221 10.623 46.035 16.276l-22.526 59.671c-3.961-9.943-7.589-18.58-10.808-27.366-1.265-3.453-3.353-5.037-6.778-5.896-15.154-3.8-30.259-7.793-46.379-11.975z"></path>
          <path d="M860.148 753.554c-15.615 4.066-30.438 8.057-45.342 11.72-4.054.997-6.257 2.942-7.68 6.914-3.092 8.626-6.755 17.048-10.524 26.396l-22.457-59.373 47.934-18.578z"></path>
          <path d="M1168.195 913.588l8.501 5.222-4.692 50.297c16.745 18.744 35.844 39.556 52.76 58.148l-.662-93.712 8.589 1.971 30.475 123.318 69.634 40.684-52.472-165.183 8.079-1.649 90.259 179.566 73.196-10.757-110.747-182.602 10.362-5.948 146.96 173.869c22.97-12.667 44.468-24.215 67.859-37.114l-185.495-174.997 9.156-14.116 221.884 156.436 77.28-57.082L1406.9 819.828l4.727-17.602 319.026 120.89 72.116-68.413-387.614-96.748-3.339-19.125 431.134 75.852 65.132-71.629-507.897-43.576-11.365-16.342 548.898 26.62L1998 630h-761.297c0 4.45 1.357 9.642.197 13.455C1419.5 735.5 1332 951 1092.498 804.805l-48.123 49.445 82.063 208.002 66.343-49.21c-33.115-26.709-71.115-82.042-79.685-114.409-2.194-8.286-.276-12.107 6.568-12.73 6.692-.609 13.336 5.846 9.787 12.987-2.001 4.016-6.189 6.93-6.189 6.93 7.732 9.551 26.502 34.554 34.545 45.44z"></path>
        </g>
      </switch>
    </svg>